<?xml version="1.0" encoding="utf-8"?>
<svg xmlns="http://www.w3.org/2000/svg"
	xmlns:xlink="http://www.w3.org/1999/xlink"
	width="23px" height="20px" viewBox="0 0 23 20">
<filter filterUnits="objectBoundingBox" x="0.00" y="0.00" width="104.55" height="105.26" id="filter0">
<feGaussianBlur in="SourceAlpha" stdDeviation="0.00" result="dsBlurOut1"/>
<feFlood flood-color="rgb(0,0,0)" flood-opacity="0.25" result="dsFloodOut1"/>
<feComposite in="dsFloodOut1" in2="dsBlurOut1" operator="in" result="dsShadow1"/>
<feOffset in="dsShadow1" dx="0.71" dy="0.71" result="dsOffset1"/>
<feComposite in="dsOffset1" in2="SourceAlpha" operator="out" result="dropShadow1"/>
<feBlend in="dropShadow1" in2="SourceGraphic" mode="normal" result="sourceGraphic"/>
<feFlood flood-color="rgb(255,255,255)" result="coFloodOut1"/>
<feComposite in="coFloodOut1" in2="SourceAlpha" operator="in" result="coOverlay1"/>
<feBlend in="coOverlay1" in2="sourceGraphic" mode="normal" result="colorOverlay1"/>
</filter>
<path fillRule="evenodd" d="M 20.17 18.11C 20.17 18.11 11.04 18.11 11.04 18.11 11.04 18.11 9.91 17.6 9.91 16.98 9.91 16.98 9.91 1.17 9.91 1.17 9.91 0.54 10.41 0.04 11.04 0.04 11.04 0.04 20.02 0.04 20.02 0.04 20.65 0.04 21.23 0.54 21.23 1.17 21.23 1.17 21.23 16.98 21.23 16.98 21.23 16.98 20.79 18.11 20.17 18.11ZM 13.3 1.17C 13.3 1.17 11.04 1.17 11.04 1.17 11.04 1.17 11.04 3.43 11.04 3.43 11.04 3.43 13.3 3.43 13.3 3.43 13.3 3.43 13.3 1.17 13.3 1.17ZM 13.3 4.55C 13.3 4.55 11.04 4.55 11.04 4.55 11.04 4.55 11.04 6.81 11.04 6.81 11.04 6.81 13.3 6.81 13.3 6.81 13.3 6.81 13.3 4.55 13.3 4.55ZM 13.3 7.94C 13.3 7.94 11.04 7.94 11.04 7.94 11.04 7.94 11.04 10.2 11.04 10.2 11.04 10.2 13.3 10.2 13.3 10.2 13.3 10.2 13.3 7.94 13.3 7.94ZM 13.3 11.33C 13.3 11.33 11.04 11.33 11.04 11.33 11.04 11.33 11.04 13.59 11.04 13.59 11.04 13.59 13.3 13.59 13.3 13.59 13.3 13.59 13.3 11.33 13.3 11.33ZM 13.3 14.72C 13.3 14.72 11.04 14.72 11.04 14.72 11.04 14.72 11.04 16.98 11.04 16.98 11.04 16.98 13.3 16.98 13.3 16.98 13.3 16.98 13.3 14.72 13.3 14.72ZM 16.7 1.17C 16.7 1.17 14.43 1.17 14.43 1.17 14.43 1.17 14.43 3.43 14.43 3.43 14.43 3.43 16.7 3.43 16.7 3.43 16.7 3.43 16.7 1.17 16.7 1.17ZM 16.7 4.55C 16.7 4.55 14.43 4.55 14.43 4.55 14.43 4.55 14.43 6.81 14.43 6.81 14.43 6.81 16.7 6.81 16.7 6.81 16.7 6.81 16.7 4.55 16.7 4.55ZM 16.7 7.94C 16.7 7.94 14.43 7.94 14.43 7.94 14.43 7.94 14.43 10.2 14.43 10.2 14.43 10.2 16.7 10.2 16.7 10.2 16.7 10.2 16.7 7.94 16.7 7.94ZM 16.7 11.33C 16.7 11.33 14.43 11.33 14.43 11.33 14.43 11.33 14.43 13.59 14.43 13.59 14.43 13.59 16.7 13.59 16.7 13.59 16.7 13.59 16.7 11.33 16.7 11.33ZM 20.09 1.17C 20.09 1.17 17.83 1.17 17.83 1.17 17.83 1.17 17.83 3.43 17.83 3.43 17.83 3.43 20.09 3.43 20.09 3.43 20.09 3.43 20.09 1.17 20.09 1.17ZM 20.09 4.55C 20.09 4.55 17.83 4.55 17.83 4.55 17.83 4.55 17.83 6.81 17.83 6.81 17.83 6.81 20.09 6.81 20.09 6.81 20.09 6.81 20.09 4.55 20.09 4.55ZM 20.09 7.94C 20.09 7.94 17.83 7.94 17.83 7.94 17.83 7.94 17.83 10.2 17.83 10.2 17.83 10.2 20.09 10.2 20.09 10.2 20.09 10.2 20.09 7.94 20.09 7.94ZM 20.09 11.33C 20.09 11.33 17.83 11.33 17.83 11.33 17.83 11.33 17.83 13.59 17.83 13.59 17.83 13.59 20.09 13.59 20.09 13.59 20.09 13.59 20.09 11.33 20.09 11.33ZM 20.09 14.72C 20.09 14.72 17.83 14.72 17.83 14.72 17.83 14.72 17.83 16.98 17.83 16.98 17.83 16.98 20.09 16.98 20.09 16.98 20.09 16.98 20.09 14.72 20.09 14.72ZM 7.64 18.11C 7.64 18.11 1.98 18.11 1.98 18.11 1.36 18.11 0.85 17.6 0.85 16.98 0.85 16.98 0.85 7.94 0.85 7.94 0.85 7.32 1.36 6.81 1.98 6.81 1.98 6.81 7.64 6.81 7.64 6.81 8.27 6.81 8.77 7.32 8.77 7.94 8.77 7.94 8.77 16.98 8.77 16.98 8.77 17.6 8.27 18.11 7.64 18.11ZM 3.11 7.94C 3.11 7.94 1.98 7.94 1.98 7.94 1.98 7.94 1.98 10.2 1.98 10.2 1.98 10.2 3.11 10.2 3.11 10.2 3.11 10.2 3.11 7.94 3.11 7.94ZM 3.11 11.33C 3.11 11.33 1.98 11.33 1.98 11.33 1.98 11.33 1.98 13.59 1.98 13.59 1.98 13.59 3.11 13.59 3.11 13.59 3.11 13.59 3.11 11.33 3.11 11.33ZM 3.11 14.72C 3.11 14.72 1.98 14.72 1.98 14.72 1.98 14.72 1.98 16.98 1.98 16.98 1.98 16.98 3.11 16.98 3.11 16.98 3.11 16.98 3.11 14.72 3.11 14.72ZM 5.38 7.94C 5.38 7.94 4.25 7.94 4.25 7.94 4.25 7.94 4.25 10.2 4.25 10.2 4.25 10.2 5.38 10.2 5.38 10.2 5.38 10.2 5.38 7.94 5.38 7.94ZM 5.38 11.33C 5.38 11.33 4.25 11.33 4.25 11.33 4.25 11.33 4.25 13.59 4.25 13.59 4.25 13.59 5.38 13.59 5.38 13.59 5.38 13.59 5.38 11.33 5.38 11.33ZM 7.64 7.94C 7.64 7.94 6.51 7.94 6.51 7.94 6.51 7.94 6.51 10.2 6.51 10.2 6.51 10.2 7.64 10.2 7.64 10.2 7.64 10.2 7.64 7.94 7.64 7.94ZM 7.64 11.33C 7.64 11.33 6.51 11.33 6.51 11.33 6.51 11.33 6.51 13.59 6.51 13.59 6.51 13.59 7.64 13.59 7.64 13.59 7.64 13.59 7.64 11.33 7.64 11.33ZM 7.64 14.72C 7.64 14.72 6.51 14.72 6.51 14.72 6.51 14.72 6.51 16.98 6.51 16.98 6.51 16.98 7.64 16.98 7.64 16.98 7.64 16.98 7.64 14.72 7.64 14.72Z" fill="rgb(97,65,97)" filter="url(#filter0)"/></svg>