<svg xmlns="http://www.w3.org/2000/svg" width="23" height="22" viewBox="0 0 23 22">
  <metadata><?xpacket begin="﻿" id="W5M0MpCehiHzreSzNTczkc9d"?>
<x:xmpmeta xmlns:x="adobe:ns:meta/" x:xmptk="Adobe XMP Core 5.6-c142 79.160924, 2017/07/13-01:06:39        ">
   <rdf:RDF xmlns:rdf="http://www.w3.org/1999/02/22-rdf-syntax-ns#">
      <rdf:Description rdf:about=""/>
   </rdf:RDF>
</x:xmpmeta>
                                                                                                    
                                                                                                    
                                                                                                    
                                                                                                    
                                                                                                    
                                                                                                    
                                                                                                    
                                                                                                    
                                                                                                    
                                                                                                    
                                                                                                    
                                                                                                    
                                                                                                    
                                                                                                    
                                                                                                    
                                                                                                    
                                                                                                    
                                                                                                    
                                                                                                    
                                                                                                    
                           
<?xpacket end="w"?></metadata>
<defs>
    <style>
      .cls-1 {
        fill: #f7f7f7;
        fill-rule: evenodd;
      }
    </style>
  </defs>
  <path id="handset" class="cls-1" d="M18.725,21.2V19.5H18.7c0.008-.142.021-0.281,0.021-0.425V9.723a7.225,7.225,0,1,0-14.45,0v9.349c0,0.144.013,0.284,0.021,0.425H4.275v1.7a4.366,4.366,0,0,1-4.25-4.675,4.228,4.228,0,0,1,2.55-4.272V9.723a8.925,8.925,0,0,1,17.85,0v2.528a4.228,4.228,0,0,1,2.55,4.272A4.366,4.366,0,0,1,18.725,21.2Zm-12.75,0H5.125v-9.35h0.85V21.2Zm11.9,0h-0.85v-9.35h0.85V21.2Z"/>
</svg>
