<svg xmlns="http://www.w3.org/2000/svg" width="56" height="62" viewBox="0 0 56 62">
  <metadata><?xpacket begin="﻿" id="W5M0MpCehiHzreSzNTczkc9d"?>
<x:xmpmeta xmlns:x="adobe:ns:meta/" x:xmptk="Adobe XMP Core 5.6-c142 79.160924, 2017/07/13-01:06:39        ">
   <rdf:RDF xmlns:rdf="http://www.w3.org/1999/02/22-rdf-syntax-ns#">
      <rdf:Description rdf:about=""/>
   </rdf:RDF>
</x:xmpmeta>
                                                                                                    
                                                                                                    
                                                                                                    
                                                                                                    
                                                                                                    
                                                                                                    
                                                                                                    
                                                                                                    
                                                                                                    
                                                                                                    
                                                                                                    
                                                                                                    
                                                                                                    
                                                                                                    
                                                                                                    
                                                                                                    
                                                                                                    
                                                                                                    
                                                                                                    
                                                                                                    
                           
<?xpacket end="w"?></metadata>
<defs>
    <style>
      .cls-1 {
        fill: #fff;
        fill-rule: evenodd;
      }
    </style>
  </defs>
  <path class="cls-1" d="M42.3,41.737c8.667,1.284,10.447,4.1,12.081,5.675s1.587,8.735,1.587,8.735l-24.576.035,2.369-5.805-3.3-13.738c0,2.5-1.287,2.1-1.287,2.1H27.08a1.308,1.308,0,0,1-1.472-1.657l0.023-.121s-0.011.05-.023,0.121L23.057,50.376l2.252,5.814-25.32.038s0.439-7.247,2.073-8.816,3.293-4.391,11.961-5.675,8.037-5.865,8.322-5.723c-0.053-1.738-.221-4.175-0.221-4.175a11.492,11.492,0,0,1-4.872-5.722c-2.79-1.126-2.422-1.85-2.693-3.3,0,0-.847-5.9,1.037-5.775a1.006,1.006,0,0,0,.99-1.354c-0.1-2.255-.3-6.16-0.154-7.665s0.858-5.564,4-6.165A16.372,16.372,0,0,1,23.368,1.4c1.048-.15.749-0.753,2.7-0.753L30.107,0c1.947,0,3.195,2.889,4.243,3.04s1.057-.46,3.2-0.058C40.7,3.583,40.26,7.72,40.41,9.224a33.929,33.929,0,0,1-.05,6.762c-0.3,1.353.636,1.2,0.636,1.2,2.246,0,1.138,5.775,1.138,5.775-0.346,1.53-.5,1.714-2.59,3.041A13.667,13.667,0,0,1,34.62,32.14s0.019,2.9,0,3.586C34.683,36,34.193,40.534,42.3,41.737ZM29.011,62.012H27.562L25.308,56.19l6.081-.009Z"/>
</svg>
