<svg xmlns="http://www.w3.org/2000/svg" width="39" height="32" viewBox="0 0 39 32">
  <metadata><?xpacket begin="﻿" id="W5M0MpCehiHzreSzNTczkc9d"?>
<x:xmpmeta xmlns:x="adobe:ns:meta/" x:xmptk="Adobe XMP Core 5.6-c142 79.160924, 2017/07/13-01:06:39        ">
   <rdf:RDF xmlns:rdf="http://www.w3.org/1999/02/22-rdf-syntax-ns#">
      <rdf:Description rdf:about=""/>
   </rdf:RDF>
</x:xmpmeta>
                                                                                                    
                                                                                                    
                                                                                                    
                                                                                                    
                                                                                                    
                                                                                                    
                                                                                                    
                                                                                                    
                                                                                                    
                                                                                                    
                                                                                                    
                                                                                                    
                                                                                                    
                                                                                                    
                                                                                                    
                                                                                                    
                                                                                                    
                                                                                                    
                                                                                                    
                                                                                                    
                           
<?xpacket end="w"?></metadata>
<defs>
    <style>
      .cls-1 {
        fill: #fff;
        fill-rule: evenodd;
      }
    </style>
  </defs>
  <path class="cls-1" d="M36.331,31.948H2.667A2.676,2.676,0,0,1-.026,29.29V8.023A2.676,2.676,0,0,1,2.667,5.365h8.164a9.059,9.059,0,0,1-.084-1.994A3.345,3.345,0,0,1,14.114.048H24.886a3.345,3.345,0,0,1,3.366,3.323,9.048,9.048,0,0,0,.084,1.994h7.995a2.676,2.676,0,0,1,2.693,2.658V29.29A2.676,2.676,0,0,1,36.331,31.948ZM19.56,26.6a7.976,7.976,0,1,0-8.079-7.974A8.027,8.027,0,0,0,19.56,26.6Z"/>
</svg>
