<svg xmlns="http://www.w3.org/2000/svg" width="24" height="21" viewBox="0 0 24 21">
  <metadata><?xpacket begin="﻿" id="W5M0MpCehiHzreSzNTczkc9d"?>
<x:xmpmeta xmlns:x="adobe:ns:meta/" x:xmptk="Adobe XMP Core 5.6-c142 79.160924, 2017/07/13-01:06:39        ">
   <rdf:RDF xmlns:rdf="http://www.w3.org/1999/02/22-rdf-syntax-ns#">
      <rdf:Description rdf:about=""/>
   </rdf:RDF>
</x:xmpmeta>
                                                                                                    
                                                                                                    
                                                                                                    
                                                                                                    
                                                                                                    
                                                                                                    
                                                                                                    
                                                                                                    
                                                                                                    
                                                                                                    
                                                                                                    
                                                                                                    
                                                                                                    
                                                                                                    
                                                                                                    
                                                                                                    
                                                                                                    
                                                                                                    
                                                                                                    
                                                                                                    
                           
<?xpacket end="w"?></metadata>
<defs>
    <style>
      .cls-1 {
        fill: #fff;
        fill-rule: evenodd;
      }
    </style>
  </defs>
  <path id="slideshow" class="cls-1" d="M22.2,20.274H4.35a1.7,1.7,0,0,1-1.7-1.7H20.5a1.7,1.7,0,0,0,1.7-1.7V3.274a1.7,1.7,0,0,1,1.7,1.7v13.6A1.7,1.7,0,0,1,22.2,20.274Zm-2.55-2.551H1.8a1.7,1.7,0,0,1-1.7-1.7V2.424A1.7,1.7,0,0,1,1.8.724H19.65a1.7,1.7,0,0,1,1.7,1.7v13.6A1.7,1.7,0,0,1,19.65,17.723Zm0-15.3H1.8v13.6H19.65V2.424ZM6.6,12.822L9.143,8.484l2.541,2.7,3.494-5.555,3.652,9.558H2.632L4.7,10.831ZM5.2,4.974a1.7,1.7,0,1,1-1.7,1.7A1.7,1.7,0,0,1,5.2,4.974Z"/>
</svg>
